<?xml version="1.0" encoding="UTF-8"?>
<!--Generator: Apple Native CoreSVG 341-->
<!DOCTYPE svg
PUBLIC "-//W3C//DTD SVG 1.1//EN"
       "http://www.w3.org/Graphics/SVG/1.1/DTD/svg11.dtd">
<svg version="1.1" xmlns="http://www.w3.org/2000/svg" xmlns:xlink="http://www.w3.org/1999/xlink" viewBox="0 0 9.81982 8.58203">
 <g id="Regular-S" transform="matrix(0.13 0 0 0.13 -3.8086 9.55322)">
  <path d="M54.1504-7.4707Q46.7285-7.4707 41.1133-10.8643Q35.498-14.2578 32.3975-20.5566Q29.2969-26.8555 29.2969-35.2539Q29.2969-43.6035 32.373-49.9268Q35.4492-56.25 41.0645-59.7168Q46.6797-63.1836 54.1016-63.1836Q59.082-63.1836 63.5498-61.4502Q68.0176-59.7168 71.0693-56.6895Q74.1211-53.6621 75.1465-49.9512Q75.4395-49.1699 75.4395-48.0469Q75.4395-46.875 74.9756-45.9961Q74.5117-45.1172 73.6328-44.6289Q72.7539-44.1406 71.6309-44.1406Q70.166-44.1406 69.2139-44.8486Q68.2617-45.5566 67.334-47.3145Q65.8691-50 63.9893-51.7578Q62.1094-53.5156 59.6924-54.3945Q57.2754-55.2734 54.1504-55.2734Q49.5117-55.2734 45.9717-52.8076Q42.4316-50.3418 40.4541-45.8252Q38.4766-41.3086 38.4766-35.3516Q38.4766-29.2969 40.4541-24.7803Q42.4316-20.2637 45.9961-17.8467Q49.5605-15.4297 54.1504-15.4297Q57.373-15.4297 59.8145-16.333Q62.2559-17.2363 64.1113-18.9941Q65.9668-20.752 67.3828-23.3887Q68.3594-25.1953 69.2627-25.8789Q70.166-26.5625 71.6309-26.5625Q72.7539-26.5625 73.6572-26.0742Q74.5605-25.5859 75.0488-24.6826Q75.5371-23.7793 75.5371-22.6074Q75.5371-21.582 75.0977-20.3125Q73.8281-16.6016 70.7275-13.6719Q67.627-10.7422 63.3057-9.10645Q58.9844-7.4707 54.1504-7.4707ZM80.5664-61.3281Q80.5664-62.4512 81.3721-63.2568Q82.1777-64.0625 83.3008-64.0625L89.9902-64.0625L89.9902-70.752Q89.9902-71.875 90.7959-72.6807Q91.6016-73.4863 92.7246-73.4863Q93.8477-73.4863 94.6289-72.6807Q95.4102-71.875 95.4102-70.752L95.4102-64.0625L102.148-64.0625Q103.271-64.0625 104.053-63.2568Q104.834-62.4512 104.834-61.3281Q104.834-60.2539 104.053-59.4482Q103.271-58.6426 102.148-58.6426L95.4102-58.6426L95.4102-51.9531Q95.4102-50.8301 94.6289-50.0244Q93.8477-49.2188 92.7246-49.2188Q91.6016-49.2188 90.7959-50.0244Q89.9902-50.8301 89.9902-51.9531L89.9902-58.6426L83.3008-58.6426Q82.1777-58.6426 81.3721-59.4482Q80.5664-60.2539 80.5664-61.3281Z"/>
 </g>
</svg>
