<?xml version="1.0" encoding="UTF-8"?>
<!--Generator: Apple Native CoreSVG 341-->
<!DOCTYPE svg
PUBLIC "-//W3C//DTD SVG 1.1//EN"
       "http://www.w3.org/Graphics/SVG/1.1/DTD/svg11.dtd">
<svg version="1.1" xmlns="http://www.w3.org/2000/svg" xmlns:xlink="http://www.w3.org/1999/xlink" viewBox="0 0 11.375 9.204">
 <defs>
  <style>.st0{fill:#FFFFFF;}.st1{fill:none;stroke:#000000;stroke-width:0.5;}.st2{font-family:'Helvetica-Bold';}.st3{font-size:13px;}.st4{font-family:'Helvetica';}.st5{fill:none;stroke:#00AEEF;stroke-width:0.5;}.st6{fill:#27AAE1;}.st7{fill:none;stroke:#27AAE1;stroke-width:0.5;}</style>
 </defs>
 <g id="Regular-S" transform="matrix(0.13 0 0 0.13 -1.274 9.217)">
  <path d="M9.8-12.4c0 4.1 1 7.2 3.1 9.2c2.1 2.1 5.2 3.1 9.3 3.1h64.1c3.5 0 6.2-1 8.1-3.1c1.9-2.1 2.9-5.1 2.9-9.2v-31.1H9.8V-12.4zM9.8-49.1h87.5v-2.5c0-4.1-1-7.2-3.1-9.2c-2.1-2-5.2-3.1-9.4-3.1H48.3c-1.2 0-2.2-0.2-3.1-0.5c-0.9-0.4-1.8-0.9-2.7-1.7l-2.4-2c-1.3-1-2.5-1.8-3.7-2.2c-1.2-0.4-2.8-0.6-4.6-0.6H20.8c-3.5 0-6.1 1-8.1 3c-1.9 2-2.9 5.1-2.9 9.1V-49.1z"/>
 </g>
</svg>
