<?xml version="1.0" encoding="UTF-8"?>
<!--Generator: Apple Native CoreSVG 341-->
<!DOCTYPE svg
PUBLIC "-//W3C//DTD SVG 1.1//EN"
       "http://www.w3.org/Graphics/SVG/1.1/DTD/svg11.dtd">
<svg version="1.1" xmlns="http://www.w3.org/2000/svg" xmlns:xlink="http://www.w3.org/1999/xlink" viewBox="0 0 8.42969 9.95313">
 <g id="Regular-S" transform="matrix(0.13 0 0 0.13 -2.53906 9.56592)">
  <path d="M24.0723 2.97852Q22.0703 2.97852 20.8008 1.63574Q19.5312 0.292969 19.5312-1.85547L19.5312-68.8965Q19.5312-70.9961 20.7764-72.29Q22.0215-73.584 24.0723-73.584Q26.123-73.584 27.3438-72.29Q28.5645-70.9961 28.5645-68.8965L28.5645-43.2129L28.7598-43.2129Q30.2734-46.2402 32.7393-48.3643Q35.2051-50.4883 38.501-51.6113Q41.7969-52.7344 45.8496-52.7344Q51.6602-52.7344 55.957-50.2441Q60.2539-47.7539 62.5488-43.2373Q64.8438-38.7207 64.8438-32.7637L64.8438-1.85547Q64.8438 0.292969 63.5742 1.63574Q62.3047 2.97852 60.3027 2.97852Q58.3008 2.97852 57.0557 1.63574Q55.8105 0.292969 55.8105-1.85547L55.8105-31.1035Q55.8105-35.4004 54.3701-38.4521Q52.9297-41.5039 50.0732-43.1152Q47.2168-44.7266 43.0664-44.7266Q38.623-44.7266 35.3516-42.8223Q32.0801-40.918 30.3223-37.4512Q28.5645-33.9844 28.5645-29.3457L28.5645-1.85547Q28.5645 0.292969 27.3193 1.63574Q26.0742 2.97852 24.0723 2.97852ZM60.1074-61.4258Q60.1074-62.5488 60.9131-63.3545Q61.7188-64.1602 62.8418-64.1602L69.5312-64.1602L69.5312-70.8496Q69.5312-71.9727 70.3369-72.7783Q71.1426-73.584 72.2656-73.584Q73.3887-73.584 74.1699-72.7783Q74.9512-71.9727 74.9512-70.8496L74.9512-64.1602L81.6895-64.1602Q82.8125-64.1602 83.5938-63.3545Q84.375-62.5488 84.375-61.4258Q84.375-60.3516 83.5938-59.5459Q82.8125-58.7402 81.6895-58.7402L74.9512-58.7402L74.9512-52.0508Q74.9512-50.9277 74.1699-50.1221Q73.3887-49.3164 72.2656-49.3164Q71.1426-49.3164 70.3369-50.1221Q69.5312-50.9277 69.5312-52.0508L69.5312-58.7402L62.8418-58.7402Q61.7188-58.7402 60.9131-59.5459Q60.1074-60.3516 60.1074-61.4258Z"/>
 </g>
</svg>
