<?xml version="1.0" encoding="UTF-8"?>
<!--Generator: Apple Native CoreSVG 341-->
<!DOCTYPE svg
PUBLIC "-//W3C//DTD SVG 1.1//EN"
       "http://www.w3.org/Graphics/SVG/1.1/DTD/svg11.dtd">
<svg version="1.1" xmlns="http://www.w3.org/2000/svg" xmlns:xlink="http://www.w3.org/1999/xlink" viewBox="0 0 13.0096 7.81797">
 <g id="Regular-S" transform="matrix(0.13 0 0 0.13 -0.888672 8.44104)">
  <path d="M49.8535-51.2593Q62.6593-51.2593 73.0674-52.8218Q75.6836-53.2406 77.5982-53.6878Q79.5127-54.135 80.7643-54.631Q79.5641-55.0756 77.656-55.4906Q75.7478-55.9056 73.0674-56.322Q62.8367-57.9359 49.8535-57.9359Q36.7727-57.9359 26.6396-56.322Q23.9695-55.9056 22.1037-55.4867Q20.238-55.0678 18.989-54.6233Q20.2842-54.153 22.168-53.6942Q24.0517-53.2355 26.6396-52.8218Q36.95-51.2593 49.8535-51.2593ZM49.8535-44.2152Q42.2852-44.2152 35.3837-44.751Q28.4822-45.2868 23.1214-46.2634Q18.3542-47.1397 15.3526-48.318Q12.3509-49.4963 10.8848-51.0292Q9.41869-52.5622 9.41869-54.6207Q9.41869-56.6329 10.8848-58.1646Q12.3509-59.6962 15.3526-60.8745Q18.3542-62.0528 23.1214-62.9292Q28.4385-63.9057 35.3156-64.4184Q42.1926-64.9311 49.8535-64.9311Q57.4193-64.9311 64.3439-64.4184Q71.2685-63.9057 76.5368-62.9292Q81.304-62.0528 84.3056-60.8745Q87.3073-59.6962 88.7747-58.1646Q90.2421-56.6329 90.2421-54.6207Q90.2421-52.5622 88.7747-51.0292Q87.3073-49.4963 84.3069-48.318Q81.3065-47.1397 76.5368-46.2634Q71.2222-45.2868 64.2976-44.751Q57.373-44.2152 49.8535-44.2152ZM90.1521-53.6955Q89.3118-50.9971 87.6156-46.5268Q85.9195-42.0564 83.3239-36.9089Q78.8394-27.9914 73.9373-23.0366Q69.0353-18.0818 63.8441-17.2106Q58.9227-16.4319 55.6564-16.0902Q52.39-15.7484 49.8535-15.7484Q47.2682-15.7484 44.0019-16.0902Q40.7355-16.4319 35.8141-17.2106Q30.6718-18.0818 25.7697-23.0366Q20.8676-27.9914 16.3343-36.9089Q13.8852-41.7609 12.2931-45.8869Q10.7011-50.0128 9.52919-53.5645L9.46495-53.8035L12.8341-54.8288L16.2161-55.8619Q16.2469-55.8722 16.3677-55.4199Q19.3488-46.618 22.6306-40.0082Q26.3055-32.8536 29.9907-28.7803Q33.676-24.707 36.9886-24.1596Q41.4345-23.4272 44.4696-23.1098Q47.5046-22.7925 49.8535-22.7925Q52.1536-22.7925 55.1411-23.1098Q58.1286-23.4272 62.6696-24.1596Q65.9822-24.707 69.6675-28.7803Q73.3527-32.8536 77.0277-40.0057Q79.045-44.0867 80.5189-47.8233Q81.9927-51.5599 83.144-54.8828Q83.3316-55.3968 83.4884-55.8131L90.1547-53.7469ZM81.7537-38.3147Q82.0904-38.3378 83.6876-38.8993Q85.2847-39.4608 87.4422-40.4258Q89.5996-41.3908 91.6632-42.6861Q95.698-45.1455 97.4751-47.6987Q99.2522-50.2519 98.7099-52.8397Q98.4555-54.3894 97.9479-55.1475Q97.4404-55.9056 96.8801-56.2577Q96.7773-56.3091 96.6257-56.3605Q95.4513-56.9464 93.6395-56.7306Q91.8277-56.5147 90.084-55.9082Q88.3404-55.3017 87.3278-54.7132L83.9947-61.0095L84.2465-61.1097Q85.9683-61.9809 88.3429-62.7955Q90.7175-63.6102 93.8387-63.8235Q96.9598-64.0368 99.6813-62.7467Q101.714-61.7779 103.349-59.7078Q104.983-57.6377 105.659-54.1067Q106.91-47.4712 101.101-41.9562Q95.2919-36.4412 88.3712-33.1723Q81.4505-29.9034 78.3177-28.9911L81.7537-38.3147ZM50.4652-4.79287Q43.5136-4.79287 33.2468-6.12536Q22.9801-7.45785 14.908-10.6535Q6.83594-13.8492 6.83594-19.0738Q6.83594-21.8082 9.53433-23.5364Q12.2327-25.2647 17.2093-26.0125Q22.186-26.7604 29.2172-26.619L30.2683-19.539Q29.9394-19.539 29.6233-19.5338Q24.6428-19.5672 20.7815-19.3578Q16.9202-19.1483 14.7538-18.3234Q18.0587-16.1621 24.2303-14.7242Q30.4019-13.2864 37.4075-12.6041Q44.413-11.9218 50.4652-11.9218Q58.0052-11.9218 64.367-12.6311Q70.7288-13.3404 75.4086-14.4711Q80.0884-15.6019 83.18-16.8483Q84.7965-17.5447 85.9067-18.1795Q84.7039-18.6087 81.931-18.9684Q79.6284-19.2254 76.5342-19.3783Q73.4401-19.5312 69.7137-19.5364L70.6594-26.763Q76.5805-26.7604 81.516-26.2991Q86.4515-25.8378 90.3038-24.0106Q94.156-22.1834 94.156-18.5367Q94.156-13.7515 86.1277-10.6548Q78.0993-7.55808 67.7362-6.17547Q57.373-4.79287 50.4652-4.79287Z"/>
 </g>
</svg>
