<?xml version="1.0" encoding="UTF-8"?>
<!--Generator: Apple Native CoreSVG 341-->
<!DOCTYPE svg
PUBLIC "-//W3C//DTD SVG 1.1//EN"
       "http://www.w3.org/Graphics/SVG/1.1/DTD/svg11.dtd">
<svg version="1.1" xmlns="http://www.w3.org/2000/svg" xmlns:xlink="http://www.w3.org/1999/xlink" viewBox="0 0 7.67431 9.95313">
 <g id="Regular-S" transform="matrix(0.13 0 0 0.13 -0.888672 9.55958)">
  <path d="M14.2578-68.8965Q14.2578-67.6758 14.8926-66.626Q15.5273-65.5762 16.5771-64.9414Q17.627-64.3066 18.8965-64.3066Q20.166-64.3066 21.2402-64.9414Q22.3145-65.5762 22.9492-66.626Q23.584-67.6758 23.584-68.8965Q23.584-70.166 22.9492-71.2402Q22.3145-72.3145 21.2402-72.9248Q20.166-73.5352 18.8965-73.5352Q17.627-73.5352 16.5771-72.9248Q15.5273-72.3145 14.8926-71.2402Q14.2578-70.166 14.2578-68.8965ZM22.6074-53.5645Q22.6074-55.3711 21.582-56.4697Q20.5566-57.5684 18.8965-57.5684Q17.2363-57.5684 16.2109-56.4697Q15.1855-55.3711 15.1855-53.5645L15.1855-9.7168Q15.1855-6.73828 14.0625-5.22461Q12.9395-3.71094 10.1562-3.32031Q8.44727-3.07617 7.6416-2.27051Q6.83594-1.46484 6.83594-0.195312Q6.83594 1.26953 8.00781 2.14844Q9.17969 3.02734 11.2305 3.02734Q14.8438 3.02734 17.3828 1.68457Q19.9219 0.341797 21.2646-2.34375Q22.6074-5.0293 22.6074-8.98438L22.6074-53.5645ZM31.8848-20.6055Q32.959-17.8223 35.2783-15.7715Q37.5977-13.7207 40.918-12.5977Q44.2383-11.4746 48.1445-11.4746Q53.3691-11.4746 57.3975-13.1348Q61.4258-14.7949 63.6475-17.8223Q65.8691-20.8496 65.8691-24.8047Q65.8691-28.125 64.624-30.3711Q63.3789-32.6172 60.6201-34.1797Q57.8613-35.7422 53.1738-36.8652L46.5332-38.5254Q42.8711-39.4043 41.0645-41.0156Q39.2578-42.627 39.2578-44.9219Q39.2578-46.8262 40.4053-48.3154Q41.5527-49.8047 43.6279-50.6348Q45.7031-51.4648 48.3398-51.4648Q51.0742-51.4648 53.0518-50.6348Q55.0293-49.8047 56.4453-47.998Q57.0312-47.2656 57.666-46.0938Q58.2031-44.9707 58.9844-44.5312Q59.7656-44.0918 60.9375-44.0918Q62.3047-44.0918 63.0859-44.873Q63.8672-45.6543 63.8672-46.9727Q63.8672-47.4609 63.7207-48.0957Q63.1836-50.7324 61.0107-52.9053Q58.8379-55.0781 55.5908-56.3232Q52.3438-57.5684 48.7305-57.5684Q43.75-57.5684 39.917-55.9326Q36.084-54.2969 33.9844-51.3428Q31.8848-48.3887 31.8848-44.5312Q31.8848-39.8438 35.0342-36.7676Q38.1836-33.6914 44.6289-32.0801L51.4648-30.3711Q55.1758-29.4434 56.7383-28.0518Q58.3008-26.6602 58.3008-24.2188Q58.3008-22.168 57.1045-20.6787Q55.9082-19.1895 53.7354-18.3838Q51.5625-17.5781 48.7305-17.5781Q44.5801-17.5781 42.2363-18.8965Q39.8926-20.2148 38.1836-23.2422Q37.5488-24.3652 36.7188-24.9023Q35.8887-25.4395 34.9121-25.4395Q33.4473-25.4395 32.4951-24.6094Q31.543-23.7793 31.543-22.3633Q31.543-21.4844 31.8848-20.6055Z"/>
 </g>
</svg>
