<?xml version="1.0" encoding="UTF-8"?>
<!--Generator: Apple Native CoreSVG 341-->
<!DOCTYPE svg
PUBLIC "-//W3C//DTD SVG 1.1//EN"
       "http://www.w3.org/Graphics/SVG/1.1/DTD/svg11.dtd">
<svg version="1.1" xmlns="http://www.w3.org/2000/svg" xmlns:xlink="http://www.w3.org/1999/xlink" viewBox="0 0 10.031 10.0433">
 <g id="Regular-S" transform="matrix(0.13 0 0 0.13 -1.26953 9.64911)">
  <path d="M24.0311-14.5456Q19.1509-14.5456 15.7458-17.6154Q12.3407-20.6851 11.0326-26.1565Q9.76562-31.5096 9.76562-35.57Q9.76562-39.6304 11.0326-44.9373Q11.6596-47.5997 13.0397-49.824Q14.4197-52.0482 16.4037-53.549Q18.3388-55.0499 20.6839-55.8234Q23.0289-56.5969 25.5936-56.5969L27.5905-56.5969L27.5905-60.6934Q27.5905-64.1345 28.5799-66.6196Q29.5693-69.1046 32.1546-70.8869Q34.7399-72.6691 39.4351-73.494Q43.4853-74.2239 48.3964-74.2239Q53.1122-74.2239 57.5067-73.494Q59.8273-73.1086 61.9552-72.0677Q64.0831-71.0269 65.6327-69.3848Q67.465-67.6449 68.4313-65.4001Q69.3976-63.1553 69.3976-60.6934L69.3976-45.0195Q69.3976-41.5887 67.7079-38.668Q66.0182-35.7473 63.1206-34.0332Q60.2231-32.3191 56.7948-32.3191L40.1444-32.3191Q38.3583-32.3191 36.9578-31.5635Q35.5572-30.808 34.7772-29.4318Q33.9972-28.0556 33.9972-26.3184L33.9972-14.5456L24.0311-14.5456ZM48.3964-67.1824Q43.8888-67.1824 40.6558-66.545Q37.7005-66.0516 36.499-65.4888Q35.2976-64.926 34.9404-63.9404Q34.5832-62.9549 34.5832-60.6934L34.5832-56.5969L51.2824-56.5969L51.2824-49.5554L25.5936-49.5554Q22.5303-49.5554 20.6042-48.0546Q18.678-46.5538 17.8403-43.2951Q16.7635-38.7875 16.7622-35.6188Q16.7609-32.4501 17.8403-27.7986Q18.3799-25.5859 19.1342-24.2406Q19.8885-22.8953 21.0655-22.2412Q22.2425-21.5872 24.0311-21.5872L26.9557-21.5872L26.9557-26.3184Q26.9557-29.7492 28.7675-32.7675Q30.5793-35.7859 33.5989-37.5732Q36.6185-39.3606 40.1444-39.3606L56.7948-39.3606Q58.5321-39.3606 59.7862-40.0429Q61.0403-40.7252 61.6982-42.0038Q62.3561-43.2823 62.3561-45.0195L62.3561-60.6934Q62.3561-63.0834 60.7756-64.5906Q59.1951-66.0979 56.3297-66.545Q52.5673-67.1824 48.3964-67.1824ZM48.0058 3.03248Q43.3362 3.03248 38.5254 1.67044Q33.1003 0.0231291 30.1257-3.18796Q27.151-6.39905 27.151-10.8887L27.151-26.5625Q27.151-29.9419 28.8651-32.8639Q30.5793-35.7859 33.4755-37.5Q36.3718-39.2141 39.705-39.2141L56.3554-39.2141Q58.1414-39.2141 59.5665-40.0172Q60.9915-40.8203 61.7714-42.2222Q62.5514-43.6241 62.5514-45.459L62.5514-57.0364L73.0058-57.0364Q75.6116-57.0364 77.8552-56.047Q80.0987-55.0576 81.7871-53.1764Q84.1591-50.5628 85.4672-45.4718Q86.9269-39.8283 86.9025-35.2346Q86.8781-30.6409 85.4209-26.2644Q84.3056-23.0572 82.9744-20.662Q81.6432-18.2669 79.1825-16.626Q76.7218-14.9851 73.0058-14.9851L68.9582-14.9851L68.9582-10.8887Q68.9582-7.07237 66.4422-3.62099Q63.9263-0.169613 57.5838 1.67044Q52.7241 3.03248 48.0058 3.03248ZM69.5929-49.9949L69.5929-45.459Q69.5929-41.9331 67.7811-38.8646Q65.9694-35.7962 62.9022-33.9844Q59.835-32.1726 56.3554-32.1726L39.705-32.1726Q38.0166-32.1726 36.7624-31.4659Q35.5083-30.7591 34.826-29.5038Q34.1437-28.2484 34.1437-26.5625L34.1437-10.8887Q34.1437-8.74023 35.7203-7.40774Q37.297-6.07525 40.4939-5.13723Q44.4207-4.00905 48.0058-4.00905Q51.5394-4.00905 55.6127-5.13723Q58.7634-6.07268 60.34-7.35634Q61.9166-8.64001 61.9166-10.8887L61.9166-14.741L45.2662-14.741L45.2662-22.0266L73.0058-22.0266Q74.6042-22.0266 75.5628-22.6331Q76.5214-23.2396 77.196-24.5554Q77.8706-25.8712 78.7546-28.4719Q79.9316-32.0056 79.9085-35.4711Q79.8854-38.9366 78.7084-43.6883Q78.071-45.9961 77.3939-47.3402Q76.7167-48.6842 75.6836-49.3395Q74.6505-49.9949 73.0058-49.9949Z"/>
 </g>
</svg>
