<?xml version="1.0" encoding="UTF-8"?>
<!--Generator: Apple Native CoreSVG 341-->
<!DOCTYPE svg
PUBLIC "-//W3C//DTD SVG 1.1//EN"
       "http://www.w3.org/Graphics/SVG/1.1/DTD/svg11.dtd">
<svg version="1.1" xmlns="http://www.w3.org/2000/svg" xmlns:xlink="http://www.w3.org/1999/xlink" viewBox="0 0 10.8064 8.80286">
 <g id="Regular-S" transform="matrix(0.13 0 0 0.13 -1.00326 8.95721)">
  <path d="M9.20025-45.2611Q7.95384-46.6488 7.83563-48.3Q7.71741-49.9512 8.72225-51.434L19.6597-66.8149Q20.3305-67.8197 21.3649-68.3607Q22.3993-68.9016 23.5968-68.9016L75.3058-68.9016Q76.5522-68.9016 77.5622-68.3851Q78.5722-67.8685 79.1915-66.8637L89.7924-52.4054Q90.8434-50.9714 90.7959-49.346Q90.7484-47.7205 89.6022-46.3816L50.3983-1.18729L9.20025-45.2611ZM83.2006-49.6505L74.2547-61.9089L24.6942-61.9089L15.4554-48.8153L50.1619-11.6057ZM13.4046-52.8372L85.4261-52.8372L85.4261-45.7956L13.4046-45.7956ZM25.0308-50.1825L37.4229-67.1901L43.0536-63.0602L33.1492-49.5246L53.0351-10.3053L46.7928-7.11349ZM45.7468-10.2693L65.5094-49.5246L55.5998-63.0654L61.2305-67.1952L73.6765-50.1825L51.9891-7.07751Z"/>
 </g>
</svg>
