<?xml version="1.0" encoding="UTF-8"?>
<!--Generator: Apple Native CoreSVG 341-->
<!DOCTYPE svg
PUBLIC "-//W3C//DTD SVG 1.1//EN"
       "http://www.w3.org/Graphics/SVG/1.1/DTD/svg11.dtd">
<svg version="1.1" xmlns="http://www.w3.org/2000/svg" xmlns:xlink="http://www.w3.org/1999/xlink" viewBox="0 0 12.259 10.985">
 <defs>
  <style>.st0{fill:#FFFFFF;}.st1{fill:none;stroke:#000000;stroke-width:0.5;}.st2{font-family:'Arial-BoldMT';}.st3{font-size:12px;}.st4{font-family:'ArialMT';}.st5{fill:none;stroke:#00AEEF;stroke-width:0.5;}.st6{fill:#27AAE1;}.st7{fill:none;stroke:#27AAE1;stroke-width:0.5;}</style>
 </defs>
 <g id="Regular-S" transform="matrix(0.13 0 0 0.13 -0.208 10.127)">
  <path d="M1.6-23.9C8.7-12.3 27.3 5.7 52.5 5.7c16 0 20.4-7.5 29.7-7.5c7.7 0 10.8 5.2 12 7.3c0.4 0.6 0.9 1.1 1.3-0.2c0.2-0.9 0.4-2.1 0.4-3.5c0-4.1-1.2-11.9-8-20.4c1.5-4.2 1.7-8.8 1.7-11.6c0-12.3-7-33.9-30-47.7c4.8 6.8 11.2 17.1 11.2 31.4c0 5.2-1.4 10.9-2.6 13.8C55.6-40.1 31.6-60.1 22-70.3C29.7-58.5 38.9-47.8 49-36.6c-13.6-8.6-26.3-18.2-38.1-28.8c11.3 16.4 25.6 32.6 44.5 47.9c-5.4 3-11 5.4-20.5 5.4C23.4-12.1 9.3-17.7 1.6-23.9z"/>
 </g>
</svg>
