<?xml version="1.0" encoding="UTF-8"?>
<!--Generator: Apple Native CoreSVG 341-->
<!DOCTYPE svg
PUBLIC "-//W3C//DTD SVG 1.1//EN"
       "http://www.w3.org/Graphics/SVG/1.1/DTD/svg11.dtd">
<svg version="1.1" xmlns="http://www.w3.org/2000/svg" xmlns:xlink="http://www.w3.org/1999/xlink" viewBox="0 0 8.21354 7.32353">
 <g id="Regular-S" transform="matrix(0.13 0 0 0.13 -0.888672 8.24193)">
  <path d="M13.8081-17.9893Q13.8081-12.7364 16.4576-10.1228Q19.1072-7.50925 24.4218-7.50925L24.9615-7.50925Q26.9249-7.50925 28.0492-7.88574Q29.1735-8.26223 29.6425-8.9908Q30.1115-9.71937 30.1115-10.845Q30.1115-12.1171 29.2879-12.8238Q28.4642-13.5305 26.727-13.623L25.9997-13.6693Q23.2293-13.8569 22.0639-15.219Q20.8984-16.581 20.8984-19.4773L20.8984-46.0681L26.7321-46.0681Q28.2843-46.0681 29.108-46.821Q29.9316-47.574 29.9316-48.9823Q29.9316-50.3495 29.108-51.1025Q28.2843-51.8555 26.7321-51.8555L20.8984-51.8555L20.8984-59.5934Q20.8984-61.287 19.936-62.3432Q18.9736-63.3995 17.3751-63.3995Q15.8255-63.3995 14.8168-62.342Q13.8081-61.2844 13.8081-59.5934L13.8081-51.8555L10.0355-51.8555Q8.5295-51.8555 7.68272-51.1025Q6.83594-50.3495 6.83594-48.9823Q6.83594-47.574 7.68272-46.821Q8.5295-46.0681 10.0355-46.0681L13.8081-46.0681L13.8081-17.9893ZM36.4541-16.2135Q37.5051-13.4483 39.8193-11.3705Q42.1335-9.29276 45.4127-8.17871Q48.6919-7.06466 52.5622-7.06466Q57.6994-7.06466 61.6738-8.71582Q65.6481-10.367 67.8325-13.3506Q70.017-16.3343 70.017-20.2148Q70.017-23.4709 68.7744-25.6836Q67.5319-27.8963 64.8052-29.4524Q62.0785-31.0084 57.4579-32.1263L50.9123-33.676Q47.1937-34.6217 45.3549-36.2318Q43.5161-37.8418 43.5161-40.1958Q43.5161-42.0924 44.6854-43.6164Q45.8547-45.1403 47.9685-45.9678Q50.0822-46.7953 52.7164-46.7953Q55.4893-46.7953 57.499-45.9074Q59.5086-45.0195 60.9324-43.2309Q61.4772-42.4702 62.1454-41.2675Q62.7107-40.1547 63.4637-39.723Q64.2167-39.2912 65.35-39.2912Q66.5759-39.2912 67.352-40.0455Q68.1281-40.7998 68.1281-42.0282Q68.1281-42.5139 67.9816-43.0998Q67.3905-45.7802 65.2498-47.9736Q63.1091-50.167 59.916-51.4199Q56.7229-52.6727 53.0916-52.6727Q48.2011-52.6727 44.4439-51.0472Q40.6867-49.4218 38.6012-46.5114Q36.5157-43.6009 36.5157-39.8206Q36.5157-35.2154 39.6279-32.1906Q42.74-29.1658 49.1237-27.611L55.8542-25.9252Q59.6654-24.9769 61.2253-23.5467Q62.7853-22.1166 62.7853-19.6083Q62.7853-17.5627 61.5851-16.0349Q60.385-14.5071 58.1916-13.7014Q55.9981-12.8958 53.1199-12.8958Q48.9541-12.8958 46.5576-14.2578Q44.1612-15.6199 42.4779-18.7243Q41.91-19.8345 41.1351-20.3369Q40.3603-20.8393 39.3169-20.8393Q37.9523-20.8393 37.0374-20.0619Q36.1225-19.2845 36.1225-17.9662Q36.1225-17.1592 36.4541-16.2135Z"/>
 </g>
</svg>
