<?xml version="1.0" encoding="UTF-8"?>
<!--Generator: Apple Native CoreSVG 341-->
<!DOCTYPE svg
PUBLIC "-//W3C//DTD SVG 1.1//EN"
       "http://www.w3.org/Graphics/SVG/1.1/DTD/svg11.dtd">
<svg version="1.1" xmlns="http://www.w3.org/2000/svg" xmlns:xlink="http://www.w3.org/1999/xlink" viewBox="0 0 11.05 9.165">
 <defs>
  <style>.st0{fill:#FFFFFF;}.st1{fill:none;stroke:#000000;stroke-width:0.5;}.st2{font-family:'Arial-BoldMT';}.st3{font-size:12px;}.st4{font-family:'ArialMT';}.st5{fill:none;stroke:#00AEEF;stroke-width:0.5;}.st6{fill:#27AAE1;}.st7{fill:none;stroke:#27AAE1;stroke-width:0.5;}</style>
 </defs>
 <g id="Regular-S" transform="matrix(0.13 0 0 0.13 -1.924 9.165)">
  <path d="M76.3 0C86 0 90.5-4.6 90.5-14.2v-9.1c0-5.2 1.4-7 5.3-7.7c2.7-0.4 4-2.1 4-4.4c0-2.2-1.4-3.9-4-4.2c-4-0.7-5.3-2.5-5.3-7.6v-9.1c0-9.5-4.5-14.2-13.7-14.2c-2.2 0-4.2 0.8-4.2 3.3c0 2.3 1.6 3 3.4 3.1c5.4 0.3 7.3 2.5 7.3 8.4v10.9c0 5.6 2.7 9.1 7.7 9.5c-4.9 0.1-7.7 3.9-7.7 9.6V-15c0 6.7-1.7 7.3-8.5 8.7c-1.5 0.4-2.1 1.4-2.1 2.9C72.6-0.8 74.7 0 76.3 0zM38.3 0C39.9 0 42-0.8 42-3.4c0-1.6-0.7-2.5-2.1-2.9c-6.8-1.4-8.5-2-8.5-8.7v-10.7c0-5.7-2.8-9.5-7.7-9.6c4.9-0.3 7.7-3.9 7.7-9.5v-10.9c0-6 1.9-8.2 7.3-8.4c1.8-0.1 3.4-0.8 3.4-3.1c0-2.4-1.9-3.3-4.2-3.3c-9.2 0-13.7 4.7-13.7 14.2v9.1c0 5.1-1.4 6.9-5.3 7.6c-2.7 0.4-4.1 2-4.1 4.2c0 2.4 1.3 4.1 4.1 4.4c3.9 0.7 5.3 2.5 5.3 7.7v9.1C24.1-4.6 28.6 0 38.3 0z"/>
 </g>
</svg>
