<?xml version="1.0" encoding="UTF-8"?>
<!--Generator: Apple Native CoreSVG 341-->
<!DOCTYPE svg
PUBLIC "-//W3C//DTD SVG 1.1//EN"
       "http://www.w3.org/Graphics/SVG/1.1/DTD/svg11.dtd">
<svg version="1.1" xmlns="http://www.w3.org/2000/svg" xmlns:xlink="http://www.w3.org/1999/xlink" viewBox="0 0 12.3589 9.15967">
 <g id="Regular-S" transform="matrix(0.13 0 0 0.13 -1.26953 9.15967)">
  <path d="M81.3477 0C90.9668 0 95.5078-4.63867 95.5078-14.1602L95.5078-23.2422C95.5078-28.418 96.875-30.2246 100.83-30.9082C103.564-31.2988 104.834-32.959 104.834-35.3516C104.834-37.5977 103.467-39.209 100.83-39.5996C96.875-40.2832 95.5078-42.0898 95.5078-47.2168L95.5078-56.2988C95.5078-65.7715 91.0156-70.459 81.7871-70.459C79.541-70.459 77.6367-69.6289 77.6367-67.1875C77.6367-64.8438 79.1992-64.1602 81.0059-64.0625C86.4258-63.7695 88.3301-61.5723 88.3301-55.6152L88.3301-44.7266C88.3301-39.1113 91.0645-35.5957 95.9961-35.2539C91.0645-35.1562 88.3301-31.3477 88.3301-25.6836L88.3301-14.9902C88.3301-8.30078 86.6211-7.71484 79.7852-6.29883C78.3203-5.9082 77.6367-4.93164 77.6367-3.36914C77.6367-0.830078 79.7363 0 81.3477 0ZM33.252 0C34.8633 0 36.9629-0.830078 36.9629-3.36914C36.9629-4.93164 36.2793-5.9082 34.8145-6.29883C28.0273-7.71484 26.3184-8.30078 26.3184-14.9902L26.3184-25.6836C26.3184-31.3477 23.5352-35.1562 18.6035-35.2539C23.5352-35.5957 26.3184-39.1113 26.3184-44.7266L26.3184-55.6152C26.3184-61.5723 28.1738-63.7695 33.5938-64.0625C35.4004-64.1602 36.9629-64.8438 36.9629-67.1875C36.9629-69.6289 35.0586-70.459 32.8125-70.459C23.584-70.459 19.0918-65.7715 19.0918-56.2988L19.0918-47.2168C19.0918-42.0898 17.7246-40.2832 13.8184-39.5996C11.1328-39.209 9.76562-37.5977 9.76562-35.3516C9.76562-32.959 11.084-31.2988 13.8184-30.9082C17.7246-30.2246 19.0918-28.418 19.0918-23.2422L19.0918-14.1602C19.0918-4.63867 23.6328 0 33.252 0ZM69.043-20.9473C73.9746-20.9473 78.125-24.1211 78.125-29.3945C78.125-34.4238 74.707-37.5977 70.2148-37.5977C68.0176-37.5977 66.2598-36.8164 65.1855-35.1562C66.4062-40.2832 70.3613-43.6523 75.6836-43.8477C77.2949-43.8965 78.5156-45.1172 78.5156-46.6309C78.5156-48.584 77.002-49.5605 74.8535-49.5605C66.2598-49.5605 58.3496-42.2363 58.3496-32.2754C58.3496-25.3906 63.1348-20.9473 69.043-20.9473ZM45.3125-20.9473C50.2441-20.9473 54.3457-24.1211 54.3457-29.3945C54.3457-34.4238 50.9766-37.5977 46.4355-37.5977C44.2383-37.5977 42.5781-36.8164 41.4551-35.1562C42.627-40.2832 46.582-43.6035 52.0508-43.8477C53.6133-43.9453 54.7852-45.1172 54.7852-46.6309C54.7852-48.584 53.1738-49.5605 51.123-49.5605C42.4805-49.5605 34.668-42.2363 34.668-32.2754C34.668-25.3906 39.4043-20.9473 45.3125-20.9473Z"/>
 </g>
</svg>
