<?xml version="1.0" encoding="UTF-8"?>
<!--Generator: Apple Native CoreSVG 341-->
<!DOCTYPE svg
PUBLIC "-//W3C//DTD SVG 1.1//EN"
       "http://www.w3.org/Graphics/SVG/1.1/DTD/svg11.dtd">
<svg version="1.1" xmlns="http://www.w3.org/2000/svg" xmlns:xlink="http://www.w3.org/1999/xlink" viewBox="0 0 5.99854 7.24268">
 <g id="Regular-S" transform="matrix(0.13 0 0 0.13 -1.26953 8.21387)">
  <path d="M34.5703-7.4707C44.3848-7.4707 52.9297-12.8418 55.4688-20.3613C55.7617-21.1914 55.9082-21.9727 55.9082-22.6074C55.9082-24.9023 54.3457-26.416 52.1484-26.416C50.2441-26.416 49.3164-25.6836 48.0469-23.3887C45.3125-18.0176 41.1621-15.1367 34.5703-15.1367C25.0977-15.1367 18.6035-22.8516 18.6035-35.3516C18.6035-47.6074 25.0488-55.5664 34.5215-55.5664C40.918-55.5664 45.166-52.7832 47.998-47.3145C49.1699-45.0195 50.2441-44.2383 52.1484-44.2383C54.3457-44.2383 55.8105-45.752 55.8105-47.998C55.8105-48.584 55.7617-49.2676 55.5176-49.8535C53.4668-57.4707 44.6289-63.1836 34.5215-63.1836C19.5801-63.1836 9.76562-52.1484 9.76562-35.2539C9.76562-18.2129 19.6777-7.4707 34.5703-7.4707Z"/>
 </g>
</svg>
