<?xml version="1.0" encoding="UTF-8"?>
<!--Generator: Apple Native CoreSVG 341-->
<!DOCTYPE svg
PUBLIC "-//W3C//DTD SVG 1.1//EN"
       "http://www.w3.org/Graphics/SVG/1.1/DTD/svg11.dtd">
<svg version="1.1" xmlns="http://www.w3.org/2000/svg" xmlns:xlink="http://www.w3.org/1999/xlink" viewBox="0 0 5.86523 9.95312">
 <g id="Regular-S" transform="matrix(0.13 0 0 0.13 -1.26953 9.57861)">
  <path d="M14.1113 2.88086C16.6504 2.88086 18.457 1.02539 18.457-1.75781L18.457-29.4922C18.457-38.916 24.0723-45.1172 33.2031-45.1172C41.748-45.1172 46.1914-39.9414 46.1914-31.2988L46.1914-1.75781C46.1914 1.02539 47.998 2.88086 50.4883 2.88086C53.0273 2.88086 54.8828 1.02539 54.8828-1.75781L54.8828-32.8613C54.8828-44.8242 47.6562-52.832 35.8398-52.832C27.6367-52.832 21.6309-49.2188 18.6523-43.1152L18.457-43.1152L18.457-69.1406C18.457-71.8262 16.748-73.6816 14.1113-73.6816C11.5234-73.6816 9.76562-71.8262 9.76562-69.1406L9.76562-1.75781C9.76562 1.02539 11.6211 2.88086 14.1113 2.88086Z"/>
 </g>
</svg>
